<control> default_path=Sustain\
<region> sample=3_G.wav hikey=g3 pitch_keycenter=g3 offset=5806
<region> sample=3_Ab.wav key=g#3 offset=3212
<region> sample=3_A.wav key=a3 offset=2836
<region> sample=3_Bb.wav key=a#3 offset=4790
<region> sample=3_B.wav key=b3 offset=5139
<region> sample=4_C.wav key=c4 offset=4674
<region> sample=4_Db.wav key=c#4 offset=5375
<region> sample=4_D.wav key=d4 offset=3564
<region> sample=4_Eb.wav key=d#4 offset=6806
<region> sample=4_E.wav key=e4 offset=4450
<region> sample=4_F.wav key=f4 offset=7627
<region> sample=4_Gb.wav key=f#4 offset=5679
<region> sample=4_G.wav key=g4 offset=5032
<region> sample=4_Ab.wav key=g#4 offset=6331
<region> sample=4_A.wav key=a4 offset=4428
<region> sample=4_Bb.wav key=a#44 offset=6118
<region> sample=4_B.wav key=b4 offset=4855
<region> sample=5_C.wav key=c5 offset=4015
<region> sample=5_Db.wav key=c#5 offset=5760
<region> sample=5_D.wav key=d5 offset=4361
<region> sample=5_Eb.wav key=d#5 offset=5820
<region> sample=5_F.wav hikey=f5 lokey=e5 pitch_keycenter=f5 offset=6396
<region> sample=5_Gb.wav key=f#5 offset=5376
<region> sample=5_G.wav key=g5 offset=4571
<region> sample=5_Ab.wav key=g#5 offset=5370
<region> sample=5_A.wav key=a5 offset=6100
<region> sample=5_Bb.wav key=a#5 offset=4300
<region> sample=5_B.wav key=b5 offset=4094
<region> sample=6_C.wav key=c6 offset=6661
<region> sample=6_Db.wav key=c#6 offset=4380
<region> sample=6_D.wav key=d6 offset=6223
<region> sample=6_Eb.wav key=d#6 offset=5990
<region> sample=6_E.wav key=e6 offset=6635
<region> sample=6_F.wav key=f6 offset=5130
<region> sample=6_Gb.wav key=f#6 offset=5888
<region> sample=6_G.wav key=g6 offset=4096
<region> sample=6_Ab.wav key=g#6 offset=6479
<region> sample=6_A.wav key=a6 offset=3652
<region> sample=6_Bb.wav key=a#6 offset=6547
<region> sample=6_B.wav lokey=b6 pitch_keycenter=b6 offset=3875